<?xml version="1.0" encoding="utf-8"?>
<!-- Generator: Adobe Illustrator 17.0.0, SVG Export Plug-In . SVG Version: 6.00 Build 0)  -->
<!DOCTYPE svg PUBLIC "-//W3C//DTD SVG 1.1//EN" "http://www.w3.org/Graphics/SVG/1.1/DTD/svg11.dtd">
<svg version="1.1" id="Layer_1" xmlns="http://www.w3.org/2000/svg" xmlns:xlink="http://www.w3.org/1999/xlink" x="0px" y="0px"
	 width="595.28px" height="841.89px" viewBox="0 0 595.28 841.89" enable-background="new 0 0 595.28 841.89" xml:space="preserve">
<polygon fill-rule="evenodd" clip-rule="evenodd" fill="#000041" points="-4,198.89 598,198.89 598,644.89 -4,644.89 -4,198.89 "/>
<path fill-rule="evenodd" clip-rule="evenodd" fill="#FFFFFF" d="M233.881,528.262h-12.876c-1.199,0-2.314-0.222-3.364-0.671
	c-2.151-0.952-3.697-2.497-4.642-4.642c-0.456-1.057-0.685-2.178-0.685-3.377v-9.225c0-1.187,0.229-2.308,0.685-3.364
	c0.945-2.138,2.49-3.683,4.642-4.642c1.05-0.456,2.165-0.685,3.364-0.685h12.876c1.193,0,2.321,0.229,3.377,0.685
	c2.138,0.959,3.69,2.504,4.642,4.642c0.443,1.057,0.672,2.178,0.672,3.364h-5.979c0-0.75-0.267-1.389-0.795-1.91
	c-0.528-0.521-1.167-0.782-1.916-0.782h-12.876c-0.749,0-1.389,0.261-1.917,0.782c-0.535,0.521-0.796,1.16-0.796,1.91v9.225
	c0,0.75,0.261,1.389,0.796,1.917c0.528,0.528,1.167,0.795,1.917,0.795h12.876c0.75,0,1.388-0.267,1.916-0.795
	c0.528-0.528,0.795-1.167,0.795-1.917h5.979c0,1.2-0.229,2.321-0.672,3.377c-0.952,2.145-2.504,3.69-4.642,4.642
	C236.201,528.041,235.074,528.262,233.881,528.262L233.881,528.262z M269.826,528.262h-22.101v-16.331h22.101
	c0.593,0,1.108-0.215,1.532-0.652c0.43-0.43,0.646-0.946,0.646-1.545c0-0.6-0.215-1.108-0.646-1.539
	c-0.424-0.424-0.939-0.639-1.532-0.639h-22.101v-5.979h22.101c1.115,0,2.171,0.208,3.156,0.633c0.991,0.417,1.858,1.004,2.608,1.753
	c1.597,1.63,2.393,3.56,2.393,5.79c0,0.932-0.17,1.858-0.502,2.791c-0.313,0.88-0.769,1.676-1.356,2.386
	c1.238,1.577,1.858,3.305,1.858,5.176c0,2.177-0.795,4.101-2.393,5.77c-0.75,0.75-1.616,1.336-2.608,1.753
	C271.998,528.054,270.941,528.262,269.826,528.262L269.826,528.262z M269.826,522.284c0.593,0,1.108-0.215,1.532-0.639
	c0.43-0.43,0.646-0.939,0.646-1.539c0-0.6-0.215-1.115-0.646-1.545c-0.424-0.437-0.939-0.652-1.532-0.652h-16.123v4.375H269.826
	L269.826,522.284z M300.882,528.262h-16.964v-26.606h16.964c1.832,0,3.553,0.352,5.177,1.05c3.267,1.441,5.633,3.801,7.081,7.087
	c0.704,1.617,1.056,3.338,1.056,5.157c0,1.833-0.352,3.56-1.056,5.177c-1.447,3.273-3.814,5.633-7.081,7.087
	C304.436,527.91,302.715,528.262,300.882,528.262L300.882,528.262z M300.882,522.284c1.35,0,2.575-0.333,3.684-0.991
	c1.108-0.665,1.995-1.552,2.653-2.667c0.665-1.115,0.997-2.34,0.997-3.677c0-1.336-0.332-2.562-0.997-3.67
	c-0.659-1.102-1.545-1.989-2.653-2.654c-1.109-0.659-2.334-0.991-3.684-0.991h-10.985v14.649H300.882L300.882,522.284z
	 M349.946,528.262h-6.839l-10.718-19.141l-10.731,19.141h-6.839l14.956-26.704h5.216L349.946,528.262L349.946,528.262z
	 M372.996,528.262H360.12c-1.2,0-2.321-0.228-3.383-0.684c-2.138-0.946-3.684-2.49-4.636-4.642c-0.45-1.05-0.671-2.165-0.671-3.364
	v-9.225c0-1.187,0.221-2.308,0.671-3.364c0.952-2.152,2.497-3.697,4.636-4.642c1.062-0.456,2.184-0.685,3.383-0.685h12.876
	c1.18,0,2.301,0.229,3.358,0.685c2.138,0.946,3.69,2.49,4.642,4.642c0.456,1.057,0.691,2.178,0.691,3.364v9.225
	c0,1.2-0.235,2.315-0.691,3.364c-0.952,2.152-2.503,3.697-4.642,4.642C375.297,528.035,374.176,528.262,372.996,528.262
	L372.996,528.262z M372.996,522.284c0.749,0,1.382-0.267,1.91-0.795c0.521-0.528,0.782-1.167,0.782-1.917v-9.225
	c0-0.75-0.261-1.389-0.782-1.917c-0.528-0.535-1.16-0.795-1.91-0.795H360.12c-0.75,0-1.388,0.26-1.917,0.795
	c-0.535,0.528-0.795,1.167-0.795,1.917v9.225c0,0.75,0.26,1.389,0.795,1.917c0.528,0.528,1.167,0.795,1.917,0.795H372.996
	L372.996,522.284z"/>
<linearGradient id="SVGID_1_" gradientUnits="userSpaceOnUse" x1="297" y1="472.7657" x2="297" y2="315.5178">
	<stop  offset="0" style="stop-color:#0035D4"/>
	<stop  offset="1" style="stop-color:#00EDDF"/>
</linearGradient>
<path fill-rule="evenodd" clip-rule="evenodd" fill="url(#SVGID_1_)" d="M349.22,372.364c2.624-2.16,6.388-2.067,8.895,0.062
	l20.778,16.613l-0.011,0.007c0.251,0.223,0.49,0.466,0.712,0.731c2.436,2.899,2.036,7.204-0.892,9.615l-87.621,71.797
	c-2.621,2.158-6.379,2.067-8.885-0.055l-66.894-55.214c-2.928-2.411-3.328-6.715-0.892-9.615c0.301-0.359,0.632-0.679,0.986-0.961
	l13.572-11.202l-13.666-11.279c-2.928-2.411-3.328-6.716-0.892-9.615c0.301-0.359,0.632-0.679,0.986-0.96l66.867-55.191
	c2.621-2.158,6.379-2.067,8.886,0.055l45.133,37.289c0.408,0.308,0.789,0.666,1.132,1.074c2.435,2.899,2.036,7.204-0.893,9.615
	l-20.439,16.735l-0.019-0.012c-2.491,1.78-5.972,1.743-8.443-0.291l-20.947-17.269l-36.166,29.85l36.166,29.851L349.22,372.364
	L349.22,372.364z M321.315,359.862l-34.646-28.628l-56.191,46.379l9.256,7.64l42.525-35.1c2.621-2.158,6.379-2.067,8.886,0.055
	l20.911,17.243L321.315,359.862L321.315,359.862z M363.453,394.157l-9.719-7.741l-62.655,51.714
	c-2.621,2.158-6.379,2.067-8.885-0.054l-42.459-35.045l-9.256,7.64l56.191,46.379L363.453,394.157L363.453,394.157z"/>
<polygon fill-rule="evenodd" clip-rule="evenodd" fill="#0055B1" points="224.373,390.352 224.422,390.329 249.301,410.904 
	249.285,410.914 239.735,403.031 235.159,406.808 224.463,397.858 228.965,394.142 224.373,390.352 "/>
</svg>
